# xmcd
#
# Track frame offsets:
# 150
# 13670
# 23863
# 50186
# 71454
# 90798
# 110305
# 125094
# 144348
# 162211
#
# Disc length: 2427 seconds
#
#
# Revision: 0
# Processed by: cddbd v1.5.1PL2 Copyright (c) Steve Scherf et al.
# Submitted via: FreeRIP 2.92 
#
DISCID=7d09790a
DTITLE=Dim Mak - Knives Of Ice
DYEAR=2006
DGENRE=Death Metal
TTITLE0=Knives Of Ice
TTITLE1=Seeing Crows In Silver
TTITLE2=Great Worm Of Hell
TTITLE3=Devil Finding Mirror
TTITLE4=Incident At The Temple Leng
TTITLE5=Notorious Vectors Of Disease
TTITLE6=Weakener
TTITLE7=Windowpane
TTITLE8=Perpetuating Corpses
TTITLE9=Monolith
EXTD=
EXTT0=
EXTT1=
EXTT2=
EXTT3=
EXTT4=
EXTT5=
EXTT6=
EXTT7=
EXTT8=
EXTT9=
PLAYORDER=
